<svg xmlns="http://www.w3.org/2000/svg" xmlns:vectornator="http://vectornator.io" xmlns:xlink="http://www.w3.org/1999/xlink" style="fill-rule:evenodd;clip-rule:evenodd;stroke-linecap:round;stroke-linejoin:round" version="1.1" viewBox="0 0 4316.03 3831.13" xml:space="preserve"><g id="map" vectornator:layerName="Udine"><path fill="#f8c300" fill-opacity="0" stroke="#000" stroke-linecap="butt" stroke-linejoin="miter" stroke-width="11.4" d="M3439+3023.41L3439.06+3023.28L3438.25+3010.19L3440.66+2984.47L3440.47+2982.94L3439.25+2979.84L3416.12+2929.38L3414.38+2926.91L3407.25+2918.22L3398.84+2910.16L3395.94+2907.91L3393.03+2906.19L3388.88+2903.56L3385.56+2901.19L3380.16+2897.25L3379.19+2885.72L3378.94+2872.5L3383.94+2855L3387.75+2844.19L3387.41+2860.5L3391.44+2855.38L3395.22+2849.44L3396.81+2846.66L3429.84+2783.47L3430.31+2781.88L3429.69+2777.12L3422.91+2735.03L3433.72+2740.19L3433.94+2740.22L3436.38+2740.62L3439.22+2740.06L3440.44+2739.19L3440.5+2738.69L3440.09+2737.72L3439.38+2736.34L3438.12+2734.16L3435.56+2730.38L3433.56+2727.88L3432.12+2726.25L3448.56+2709.88L3451.19+2708L3453.97+2706.03L3460.84+2701.84L3468.03+2697.88L3471.75+2696.47L3473.81+2695.81L3475.53+2691.91L3476.94+2688.69L3485.59+2666.34L3496.72+2638.28L3498.25+2634.62L3498.66+2633.78L3499.69+2631.88L3509.62+2617.03L3529.5+2592.97L3547.97+2569.81L3549.38+2567.59L3550.19+2566.22L3550.34+2558.81L3550.09+2557.88L3547.06+2548.56L3545.22+2543.03L3543.34+2537.78L3541.06+2531.41L3539.28+2525.84L3538.41+2521.06L3538.22+2515.41L3538.41+2512.97L3550.03+2465.66L3556.69+2422.84L3555.41+2406.03L3529.56+2380.06L3502.81+2393.81L3500.59+2394.38L3495.12+2394.03L3471.38+2390.59L3467.5+2388.66L3465.28+2387.06L3460.22+2382.12L3459.22+2381L3457.19+2380.09L3431.25+2372.19L3426.09+2371.5L3423.34+2371.16L3421.62+2371.56L3407.44+2375.91L3389.38+2395.12L3388.19+2397.31L3385.81+2402.28L3385.19+2403.78L3385.12+2405.78L3385.44+2408.31L3385.69+2410.31L3381.91+2419.03L3380.28+2421.72L3363.19+2449L3362+2449.16L3354.56+2445.47L3345.78+2442.22L3318.75+2442.72L3306.81+2443.56L3305.34+2445.03L3304.53+2448L3304.31+2451.06L3304.25+2453.81L3303.09+2456.53L3300.72+2458.31L3297.81+2459.84L3294.31+2460.91L3289.66+2460.5L3269.34+2456.59L3261.59+2455.03L3256.91+2453.75L3254.12+2452.62L3252.53+2450.91L3251.41+2448.22L3250.84+2444.97L3249.59+2434.84L3249.84+2432.72L3249.44+2431.25L3221.94+2415.12L3197.06+2406.06L3183.59+2404.53L3181.47+2402.59L3164.94+2384.16L3162.88+2378.53L3157.03+2366.91L3142.72+2340.34L3141.19+2337.69L3139.22+2335.38L3137.16+2333.5L3130.5+2328.84L3129.03+2328.03L3127.16+2327.47L3125.34+2326.62L3122.62+2324.62L3114.84+2312.06L3115.41+2310.28L3124.72+2293.25L3125.84+2292.53L3146.84+2283.09L3148.97+2283.03L3150.97+2283.59L3157.19+2283.75L3163.62+2282.31L3164.19+2282.22L3169.5+2275.78L3170.94+2273.28L3189.31+2239.94L3198.94+2216.88L3199.97+2214.31L3200.53+2211.69L3206.75+2178.78L3206.69+2169.53L3206.66+2168.53L3193.94+2166.25L3186.81+2165.22L3177.66+2164L3174.47+2163.5L3173.06+2162.47L3170.44+2159.16L3171.44+2150.22M3076.22+3224.75L3076.53+3222.97L3073.81+3222.16L3071.03+3227.19L3072.91+3226.62L3075.78+3225.09L3076.22+3224.75ZM3071.03+3227.19L3049.97+3233.66L3048.22+3234.06L3046.97+3234L3045.66+3233.94L3039.81+3234.81L3041.12+3237L3043.72+3238.09L3047.12+3238L3050.38+3237.28L3060.44+3233.31L3068.62+3229.94L3070.47+3228.22L3071.03+3227.19ZM3439.31+3023.19L3438.9+3024.15M2216.88+3226.69L2214.34+3228.31C2214.34+3228.31+2213.44+3228.84+2213.44+3228.84L2212.19+3230.09L2211.84+3231.34L2212.56+3233.16L2212.56+3236.19L2212.72+3238.88L2214.34+3241.75L2216.5+3242.12L2217.56+3240.31L2218.12+3238.72L2218.66+3238L2221.34+3237.28L2221.88+3234.94L2221.69+3230.81L2220.28+3229.03L2218.66+3227.22L2216.88+3226.69ZM2223.69+3237.62L2222.41+3237.81L2220.62+3239.44C2220.62+3239.44+2219.19+3240.5+2219.19+3240.5L2219.72+3241.75L2221+3243.38L2222.41+3244.81L2223.69+3246.06L2224.03+3247.84L2226+3249.66L2227.44+3250.38L2226.91+3248.56L2225.28+3246.97L2225.28+3245.53L2226+3244.44L2225.47+3243.19L2224.03+3242.31L2224.03+3240.16L2223.69+3237.62ZM2677.72+3256.31L2672.12+3261.91L2671.12+3267.5L2668.59+3271.03L2665.03+3273.56L2666.56+3277.62L2662+3280.69L2657.94+3281.69L2658.94+3285.75L2658.44+3292.84L2657.94+3294.88L2653.88+3292.84L2650.31+3290.81L2649.31+3293.38L2645.75+3295.38L2638.66+3292.84L2636.12+3290.31L2634.09+3286.75L2630.03+3284.75L2626.47+3286.75L2624.44+3283.72L2621.91+3280.69L2618.88+3279.16L2615.81+3282.19L2610.25+3282.72L2606.69+3284.22L2601.62+3284.75L2600.59+3280.69L2598.56+3277.62L2600.59+3272.56L2600.09+3270.53L2598.06+3269L2596.03+3268L2594+3271.53C2594+3271.53+2595.54+3276.1+2592.5+3273.56C2589.46+3271.03+2588.44+3268.5+2588.44+3268.5L2585.88+3268L2586.41+3271.03L2586.41+3272.56L2584.38+3273.56L2581.31+3275.09L2580.81+3277.12L2578.28+3277.12L2579.28+3280.16L2579.28+3286.25L2579.28+3288.28L2573.22+3291.34L2571.19+3288.28L2572.19+3291.34L2573.72+3295.38L2574.72+3298.94L2576.25+3303.5L2577.78+3308.59L2584.38+3310.09L2589.44+3311.12L2591.97+3315.19L2594.5+3323.28L2594.5+3327.34L2596.53+3332.94L2588.94+3334.97L2577.28+3340.53L2569.66+3342.56L2560.03+3344.59L2552.41+3347.12L2550.88+3348.66L2547.84+3349.66L2545.81+3346.12L2542.25+3347.66L2536.19+3347.66L2530.59+3344.59L2525+3340.53L2519.94+3335.47L2516.38+3334.44L2514.88+3327.84L2512.34+3327.34L2507.78+3327.34L2506.75+3329.38C2506.75+3329.38+2506.25+3332.94+2506.25+3332.94L2506.25+3337.5L2508.78+3343.06L2512.34+3348.16L2514.88+3353.22L2517.91+3357.78L2517.91+3363.88L2517.41+3369.47L2527.56+3372L2552.41+3373L2560.53+3376.06L2569.16+3381.62L2577.78+3385.69L2593+3388.72L2610.75+3393.31L2618.88+3395.84L2628+3397.88L2625.47+3395.84L2614.31+3392.78L2596.53+3387.22L2582.84+3382.12L2574.22+3379.59L2568.66+3377.56L2567.62+3375.03L2573.72+3375.03L2584.38+3377.56L2593.5+3379.59L2606.19+3382.66L2611.25+3386.19L2617.34+3382.12C2617.34+3382.12+2617.35+3380.09+2614.81+3380.09C2612.28+3380.09+2608.22+3379.59+2608.22+3379.59L2607.19+3375.53L2602.12+3373L2595.53+3375.03L2590.47+3374.03L2589.94+3366.91C2589.94+3366.91+2595.03+3367.43+2597.06+3367.94C2599.09+3368.44+2603.66+3370.99+2605.69+3372C2607.72+3373.01+2611.75+3374.52+2613.78+3375.53C2615.81+3376.55+2618.36+3377.56+2621.41+3377.56C2624.45+3377.56+2632.06+3376.56+2632.06+3376.56C2632.06+3376.56+2636.63+3376.06+2638.66+3376.06C2640.69+3376.06+2645.75+3378.59+2645.75+3378.59L2649.31+3384.69L2653.88+3388.72L2659.44+3390.25L2666.03+3393.81L2674.16+3397.88L2683.28+3403.44L2694.44+3407C2694.44+3407+2701.06+3412.08+2703.59+3413.09C2706.13+3414.11+2709.66+3416.13+2711.69+3417.66C2713.72+3419.18+2719.31+3424.25+2719.31+3424.25C2719.31+3424.25+2724.88+3429.81+2726.91+3429.81C2728.94+3429.81+2733+3431.84+2733+3431.84C2733+3431.84+2736.06+3434.9+2736.06+3432.88C2736.06+3430.85+2739.1+3427.28+2736.56+3427.28C2734.03+3427.28+2732+3427.28+2732+3427.28C2732+3427.28+2728.45+3426.79+2727.44+3424.25C2726.42+3421.71+2722.88+3417.16+2722.88+3417.16L2718.28+3416.62L2711.69+3415.12L2707.12+3411.56C2707.12+3411.56+2708.15+3406.5+2706.12+3406.5C2704.1+3406.5+2701.06+3402.44+2701.06+3402.44L2696.47+3396.34L2693.94+3393.81L2693.44+3386.19L2690.91+3376.56C2690.91+3376.56+2691.41+3373.01+2691.41+3370.47C2691.41+3367.93+2696.47+3369.47+2696.47+3369.47L2698+3359.81L2698+3355.75L2691.91+3354.75L2683.28+3359.31L2675.69+3360.84L2669.09+3358.28C2669.09+3358.28+2663+3358.81+2663+3356.78C2663+3354.75+2662.5+3352.72+2662.5+3352.72L2657.94+3352.72L2652.84+3354.75L2649.81+3359.81L2654.88+3362.88L2657.94+3365.91L2657.41+3367.44L2651.34+3370.47L2647.78+3370.47L2644.22+3366.41L2641.19+3362.34L2637.12+3356.78L2634.59+3356.25L2628.5+3354.25L2626.97+3356.78L2620.91+3353.72L2617.84+3351.19L2617.84+3346.62L2622.41+3346.12L2625.97+3344.59L2632.56+3342.06L2637.12+3340.03L2638.66+3338.5L2644.75+3341.56L2648.78+3343.06L2651.34+3341.56L2649.81+3338L2645.25+3335.47L2645.75+3331.41L2652.34+3329.38L2656.91+3327.84L2670.62+3326.84L2678.72+3326.84L2682.28+3331.41L2684.31+3340.03L2682.78+3342.56L2675.69+3344.09L2672.12+3345.62L2669.59+3350.19L2672.12+3353.22L2675.69+3354.75L2677.22+3357.28L2680.75+3357.28L2682.78+3355.75L2684.81+3352.22L2682.78+3350.69L2682.78+3346.62L2685.84+3347.66L2690.91+3346.12L2693.94+3343.06L2695.97+3339.03L2704.09+3335.47L2705.09+3330.41L2709.66+3324.31L2708.16+3321.78L2695.97+3318.22L2690.91+3319.22L2678.72+3318.72L2672.62+3319.75C2672.62+3319.75+2667.57+3317.21+2665.03+3315.69C2662.49+3314.17+2660.97+3313.15+2660.97+3313.16L2655.38+3315.69L2649.31+3314.66L2653.38+3309.09C2653.38+3309.09+2654.88+3305.53+2656.91+3305.53C2658.94+3305.53+2665.53+3301.97+2665.53+3301.97L2668.06+3298.44L2670.62+3292.84L2673.66+3290.31L2676.19+3289.31L2680.25+3281.69L2682.78+3279.66L2684.81+3272.56L2684.31+3268L2682.28+3261.41L2677.72+3256.31ZM2603.66+3257.34L2599.59+3259.38C2599.59+3259.38+2598.06+3262.94+2598.06+3262.94L2600.09+3266.97L2603.12+3266.97L2606.19+3265.47L2607.72+3262.94L2607.72+3257.34L2603.66+3257.34ZM2743.66+3277.62L2739.59+3278.16L2742.66+3284.22C2742.66+3284.22+2745.69+3284.75+2745.69+3284.75L2750.75+3285.75L2748.72+3280.16L2743.66+3277.62ZM2809.34+3305.53C2809.34+3305.53+2809.09+3309.09+2809.09+3309.09L2806.56+3314.16L2802.5+3314.66L2797.19+3314.16L2799.72+3319.75C2799.72+3319.75+2803.02+3322.52+2804.03+3323.03C2805.05+3323.54+2807.83+3328.37+2808.84+3328.88C2809.86+3329.38+2813.16+3326.34+2813.16+3326.34L2815.44+3321.25L2821.78+3316.94L2819.5+3311.12L2815.69+3307.56L2809.34+3305.53ZM2944.81+3311.12L2938.22+3314.41C2938.73+3314.91+2937.45+3313.66+2936.44+3313.16C2935.42+3312.65+2936.19+3314.42+2936.19+3315.44C2936.19+3316.45+2936.19+3317.97+2936.19+3317.97L2934.66+3318.22L2933.66+3321.25C2933.66+3321.25+2934.15+3324.54+2934.66+3325.81C2935.16+3327.08+2936.45+3327.61+2937.97+3328.62C2939.49+3329.64+2942.53+3329.12+2942.53+3329.12C2942.53+3329.13+2945.56+3323.55+2945.56+3322.28C2945.56+3321.01+2948.86+3319.48+2949.88+3318.97C2950.89+3318.46+2951.16+3315.69+2951.16+3315.69L2949.88+3312.12L2944.81+3311.12ZM2850.19+3311.38L2848.16+3314.66C2848.16+3314.66+2845.62+3316.94+2845.62+3316.94C2845.63+3316.94+2846.89+3318.71+2847.91+3319.22C2848.92+3319.73+2849.44+3321.25+2849.44+3321.25L2852.47+3320.75L2854.75+3319.22L2855.53+3320.25L2856.28+3324.06L2858.56+3322.28L2858.31+3320.5L2856.28+3318.47L2854+3315.94L2853.5+3311.38L2850.19+3311.38ZM2480.16+3313.5L2479.97+3317.28L2479.25+3319.41L2476.94+3320.12L2476.75+3322.47L2476.38+3325.53L2473.34+3325.88L2473.34+3323.91L2472.97+3319.97L2471.56+3318L2469.41+3317.62L2466.16+3318L2461.69+3318.88L2459.16+3320.12L2455.22+3323.72L2451.47+3326.59L2448.06+3327.12L2442.66+3326.41L2439.97+3325.88L2437.12+3326.59L2435.69+3328.94L2433.69+3328.94L2431+3328.38L2430.28+3329.66L2428.69+3333.22L2426.72+3334.84L2424.56+3333.94L2420.97+3333.06C2420.97+3333.06+2419.37+3331.97+2418.47+3331.97C2417.57+3331.97+2416.12+3331.44+2416.12+3331.44C2416.13+3331.44+2414.5+3329.81+2413.78+3329.81C2413.06+3329.81+2411.66+3331.09+2411.66+3331.09L2411.81+3333.06L2409.31+3335.03L2406.97+3337.34L2404.28+3339.34L2401.25+3339.88L2399.81+3339.69L2401.97+3338.25L2402.69+3335.56L2401.25+3332.5C2401.25+3332.5+2398.18+3329.81+2397.28+3329.81C2396.38+3329.81+2395.16+3330.53+2395.16+3330.53L2396.56+3332.69L2397.66+3334.84L2395.69+3336.62L2393.72+3337.72C2393.72+3337.72+2387.97+3339.51+2387.25+3339.69C2386.53+3339.87+2377.75+3339.69+2377.75+3339.69L2372.53+3339.69C2372.53+3339.69+2363.56+3339.52+2362.84+3339.34C2362.13+3339.16+2357.84+3339.16+2357.84+3339.16L2355.16+3337.72L2350.66+3337.53L2347.44+3339.5L2342.22+3338.97L2339.72+3339.88L2337.94+3343.81L2335.59+3344.19L2331.81+3342.91L2327.69+3344.53L2324.84+3345.78C2324.84+3345.78+2325.19+3347.22+2325.19+3347.22L2327.53+3348.84L2330.56+3351.53L2334.69+3353.84L2340.25+3354.56L2344.22+3355.66L2350.31+3355.84L2361.59+3354.22L2372.72+3352.06L2382.41+3350.62L2391.19+3348.66L2398+3348.66L2410.03+3346.5L2426+3345.25L2440.88+3343.81L2456.47+3343.28L2465.81+3342.75L2470.28+3341.12L2473.69+3339.16L2475.69+3336.28L2481.06+3333.78L2483.38+3331.97L2486.06+3330.72L2487.16+3331.97L2492.19+3332.5L2492.91+3330.53L2493.59+3327.31L2494.88+3326.97L2495.59+3322.84L2494.69+3317.62L2492.34+3315.47L2489.47+3314.94L2486.06+3314.41L2481.94+3314.59L2481.22+3313.5L2480.16+3313.5ZM2540.75+3318.72L2538.22+3319.75L2535.66+3322.28L2532.12+3323.28C2532.12+3323.28+2530.09+3325.81+2530.09+3325.81L2533.12+3325.81L2537.69+3325.81L2539.72+3327.84L2543.28+3330.41L2548.84+3332.44L2550.88+3337L2553.94+3337.5L2558+3333.94L2560.03+3332.44L2564.59+3328.88L2563.56+3327.84L2558+3328.88L2553.94+3331.91L2550.38+3331.91L2545.81+3328.38L2543.28+3324.31L2540.75+3318.72ZM2570.66+3325.31C2570.15+3325.82+2571.19+3327.34+2573.22+3327.34C2575.25+3327.34+2576.25+3329.88+2576.25+3329.88L2581.31+3331.41L2580.31+3327.34L2574.22+3325.31L2570.66+3325.31ZM2315.31+3336.5L2310.75+3341.06L2305.69+3347.66L2302.12+3354.78C2302.12+3354.78+2301.18+3352.54+2299.78+3351.59C2298.39+3350.64+2296.55+3350.97+2295.53+3350.72C2293.5+3350.21+2287.4+3354.27+2285.38+3354.78C2283.35+3355.29+2277.78+3357.81+2277.78+3357.81C2277.78+3357.81+2268.13+3358.31+2265.59+3358.31C2263.06+3358.31+2260.53+3359.34+2260.53+3359.34C2260.53+3359.34+2256.97+3366.94+2256.97+3368.97C2256.97+3371+2253.44+3371.02+2251.41+3372.03C2249.38+3373.05+2251.41+3381.16+2251.41+3381.16L2256.97+3388.75C2256.97+3388.75+2261.03+3390.41+2261.03+3390.41L2277.16+3391.03L2294.12+3389.03L2314.19+3377.72L2318.62+3377.34L2320.66+3376.22L2319.88+3367.97L2317.47+3360.59L2316.34+3352.25L2316.84+3346.16L2318.38+3339.56L2315.31+3336.5ZM2854.72+3346.84L2850.41+3350.06L2847.56+3351.5C2847.56+3351.5+2844.31+3351.5+2844.31+3351.5L2840.38+3351.5L2838.59+3354.03L2838.94+3358.31L2836.78+3360.84L2833.91+3363.72L2828.91+3365.5C2828.91+3365.5+2823.15+3366.58+2821.72+3366.22C2820.28+3365.86+2818.5+3368.38+2818.5+3368.38L2821.72+3371.59C2821.72+3371.59+2824.22+3373.05+2825.66+3373.41C2827.09+3373.76+2826.38+3377.69+2826.38+3377.69C2826.37+3377.69+2827.47+3380.91+2828.19+3383.06C2828.91+3385.22+2828.53+3386.66+2828.53+3386.66L2832.5+3387.03L2836.78+3386.31L2845.41+3385.22L2849+3379.5L2853.66+3378.78L2855.81+3374.81L2854.72+3368.38L2854.38+3366.94L2858.66+3369.09L2862.62+3370.53L2865.12+3367.66L2865.84+3361.19L2862.97+3360.12L2856.16+3359.75L2857.97+3355.47L2861.19+3351.16L2863.34+3347.56L2858.31+3347.56L2854.72+3346.84ZM2970.78+3364.25L2970.94+3366.22L2972.94+3365.84L2974.19+3366.94L2972.94+3368.38L2970.78+3369.09L2969.5+3370.16L2969.5+3373.41L2970.59+3375.53L2972.56+3374.81L2972.94+3373.03L2973.81+3372.12L2975.97+3373.03L2979.38+3373.75L2979.03+3371.25L2978.31+3370.53L2977.22+3368C2977.22+3368+2977.22+3366.21+2977.22+3365.31C2977.22+3364.42+2975.97+3364.78+2975.97+3364.78L2972.38+3364.44C2972.38+3364.44+2970.78+3364.25+2970.78+3364.25ZM2970.06+3382.91C2970.06+3382.91+2967.91+3383.97+2967.91+3383.97L2966.09+3385.06L2966.47+3386.31L2968.62+3387.38L2971.31+3387.38L2973.09+3386.66L2972.75+3384.69L2970.06+3382.91ZM2976.16+3387.03L2974.53+3387.56C2974.53+3387.56+2970.78+3389.19+2970.78+3389.19L2969.34+3389.34L2971.66+3390.06L2973.47+3392.22L2975.06+3395.28L2977.59+3394.38L2979.38+3392.41L2978.12+3388.81L2976.16+3387.03ZM2963.44+3387.47L2961.94+3387.97C2961.94+3387.97+2960.28+3389+2960.28+3389L2958.62+3390.75L2958+3392.78C2958+3392.78+2957.88+3394.3+2957.88+3394.81C2957.87+3395.32+2957.09+3396.09+2957.09+3396.09L2955.59+3396.97L2954.31+3398.12L2952.91+3399.38L2951.66+3400.28L2950.5+3401.28L2951.16+3402.44L2952.91+3402.19L2954.31+3400.78L2955.72+3399.25L2956.97+3398.38L2958.88+3396.59L2959.91+3395.19L2960.78+3394.19L2962.44+3392.03L2964.09+3390.5L2964.97+3389.5L2964.72+3387.84L2963.44+3387.47ZM2820+3394.06L2813.41+3396.09C2813.66+3395.08+2814.44+3401.42+2814.44+3402.44C2814.44+3403.45+2819.25+3400.91+2819.25+3400.91L2822.53+3397.62L2820+3394.06ZM2892.75+3400.84L2891.12+3401L2888.81+3402.44L2888.28+3404.78L2888.97+3407.66L2889.16+3409.62L2888.97+3412.31L2887.72+3413.94L2886.12+3415.72L2884.31+3416.97L2879.31+3416.78L2878.22+3417.5L2878.03+3419.84C2878.03+3419.84+2877.69+3422.91+2877.69+3423.62C2877.69+3424.34+2877.69+3426.31+2877.69+3426.31L2877.88+3429.72C2877.88+3429.72+2878.23+3431.16+2878.59+3431.88C2878.95+3432.59+2881.09+3433.31+2881.09+3433.31L2883.44+3433.84L2886.12+3435.81L2888.09+3436C2888.09+3436+2889.35+3437.6+2890.25+3438.31C2891.15+3439.03+2891.5+3439.41+2891.5+3439.41L2894.19+3441.19L2897.06+3440.66C2897.06+3440.66+2897.04+3442.26+2897.22+3443.16C2897.4+3444.05+2898.31+3443.88+2898.31+3443.88L2898.5+3441.72L2900.09+3440.66L2903.34+3440.47L2905.12+3439.94L2905.84+3437.25L2906.91+3436.53L2908.34+3434.56L2908.91+3432.59L2908+3431.5L2905.84+3431.31L2903.69+3430.59L2900.81+3431.31C2900.81+3431.31+2899.38+3431.16+2899.38+3431.16L2898.12+3431.69L2897.41+3432.41L2896.34+3432.41L2894.91+3430.44L2892.75+3429.19L2891.31+3428.09L2891.12+3424.88L2891.12+3421.62L2890.97+3418.94L2890.59+3417.16L2889.53+3416.78L2888.81+3415L2889.53+3413.75C2889.53+3413.75+2890.41+3414.3+2891.12+3414.66C2891.84+3415.01+2891.84+3414.66+2891.84+3414.66L2892.41+3412.31L2892.41+3410.69L2892.41+3409.09L2893.66+3407.84L2894.72+3406.22L2894.91+3404.78L2894.19+3402.81L2892.75+3400.84ZM2949.62+3403.19L2947.59+3403.81L2945.44+3404.34L2942.66+3405.47L2940.75+3406.88L2938.47+3408.53L2937.19+3409.91C2937.19+3409.91+2937.84+3410.53+2937.84+3410.53L2939.09+3409.66L2940.5+3409.03L2941.88+3408L2943.03+3407.12L2945.81+3406.22L2947.59+3405.47L2950.12+3404.22L2949.62+3403.19ZM2822.03+3411.06L2814.44+3411.81C2814.44+3411.81+2810.62+3414.34+2810.62+3414.34L2807.59+3417.66L2803.28+3419.94L2798.69+3421.72L2795.66+3424.5L2796.94+3426.28L2801.25+3429.31L2807.31+3434.12L2811.12+3436.69C2811.12+3436.69+2814.92+3439.71+2815.94+3440.22C2816.95+3440.73+2819.25+3442.75+2819.25+3442.75L2821.78+3441.75L2823.31+3438.69L2823.31+3435.16L2824.56+3432.09L2827.88+3429.56C2827.88+3429.56+2827.88+3426.51+2827.88+3425.5C2827.87+3424.49+2827.11+3423.23+2826.34+3422.22C2825.58+3421.2+2827.38+3416.12+2827.38+3416.12L2827.38+3413.09L2826.09+3411.06L2822.03+3411.06ZM2747.12+3427.56L2742.44+3432.59L2743.53+3436.88C2743.53+3436.88+2747.82+3439.05+2749.25+3439.41C2750.68+3439.76+2753.56+3444.41+2753.56+3444.41L2757.88+3448.38L2763.25+3446.56L2768.62+3445.12L2770.06+3440.47L2768.62+3434.72L2767.91+3439.03L2762.19+3441.91L2753.56+3438.31L2750.34+3430.06L2747.12+3427.56ZM2914.44+3432.75L2912.12+3433.12L2910.5+3435.81C2910.5+3435.81+2909.06+3438.31+2909.06+3438.31L2908.19+3440.66C2908.19+3440.66+2906.55+3442.09+2905.66+3442.62C2904.76+3443.16+2904.78+3443.88+2904.78+3443.88L2904.94+3445.12L2908.19+3446.75L2911.75+3446.41C2911.75+3446.41+2913.92+3444.94+2914.81+3444.41C2915.71+3443.87+2917.69+3442.63+2917.69+3442.62L2918.75+3437.97L2917.5+3436.16L2914.44+3432.75ZM2921.81+3446.94L2919.47+3447.09C2919.47+3447.09+2915.87+3449.09+2915.16+3449.62C2914.44+3450.16+2912.31+3451.41+2912.31+3451.41L2910.69+3453.94C2910.69+3453.94+2911.59+3455.53+2911.59+3455.53L2912.66+3456.97C2912.66+3456.97+2913.91+3458.95+2914.62+3459.12C2915.34+3459.3+2916.59+3462+2916.59+3462C2916.59+3462+2916.6+3463.44+2916.78+3464.16C2916.96+3464.87+2917.16+3466.84+2917.16+3466.84L2917.88+3468.62L2920.38+3467.72L2921.81+3467.19L2923.78+3467.72L2926.28+3468.44L2927+3468.28L2928.44+3467.56L2929.53+3466.84L2931.84+3465.94L2932.56+3465.03L2935.25+3463.78L2936.69+3463.06L2938.5+3462.91L2940.28+3462.34L2942.06+3460.03L2942.62+3457.69L2942.97+3456.44L2944.75+3455.19L2945.66+3454.09L2947.81+3454.47L2946.56+3452.12L2944.22+3449.81L2941.34+3448.19L2937.94+3448L2935.62+3447.28C2935.63+3447.28+2935.09+3448.72+2933.66+3448.72C2932.22+3448.72+2931.84+3449.97+2931.84+3449.97L2929.34+3448.91C2929.34+3448.91+2927.19+3449.25+2926.47+3449.25C2925.75+3449.25+2923.06+3448.38+2923.06+3448.38L2921.81+3446.94ZM3398.19+3118.94L3398.81+3121.53L3424.19+3139.5L3448.25+3150.31L3457.06+3153.47L3518.94+3161.16L3535.66+3165.66L3540.81+3173.62L3552.66+3191.44L3555.56+3195.69L3562+3203.44L3565.19+3206.06L3566.38+3206.94L3568.47+3207.94L3570.47+3209L3576.31+3212.41L3580.28+3215.16L3596.22+3227.75L3607.19+3236.91L3609.47+3238.97L3610.47+3241.84L3611.91+3243.88L3621.44+3252.53L3623.44+3254.06L3630.78+3259.16L3633.47+3260.94L3633.78+3261.09L3641.66+3266.47L3653.47+3274.88L3656.5+3277.19L3657.06+3277.66L3661.38+3281.94L3750.84+3372.5L3751.69+3373.41L3752.09+3373.88L3753.53+3376.16L3754.75+3378.75L3756.03+3381.94L3755.38+3385.78L3754.97+3387.47L3752.09+3390.44L3780.31+3408.16L3807.94+3423L3808.72+3423.41L3811.91+3426L3813.44+3427.34L3819.44+3433.03L3820.34+3433.94L3843.03+3456.78L3862.97+3480.38L3864.31+3483L3871.88+3510.69L3877.81+3531.22L3881.47+3540.72L3887.72+3555.03L3894.09+3552.72L3898.28+3561.12L3899.28+3563.41L3905.53+3578.75L3904.75+3580.66L3904.03+3581.94L3903.47+3582.59L3881.88+3602.47L3881.31+3602.94L3879.84+3604.19L3878.38+3604.97L3876.75+3605.06L3875.66+3604.66L3875.19+3604.41L3869.66+3600.88L3869.66+3596.62L3870.16+3593.84L3871.59+3592.75L3867.47+3591.78L3849.69+3609.06L3849.53+3610.72L3849.12+3621.22L3852.69+3641.22L3874.41+3637.91L3876.84+3638.31L3887.53+3643.53L3888.38+3644.91L3888.34+3648.88L3885.22+3650.09L3867.34+3656.81L3870.56+3664.25L3874.5+3668L3876.72+3667.22L3897.19+3659.5L3901.75+3641.12L3923.44+3641.22L3923.59+3641.44L3926.88+3649.06L3927.03+3649.47L3930.19+3657.38L3918.75+3662.31L3912.88+3677.31L3912.78+3677.72L3912.84+3678.91L3922.34+3695.97L3912.19+3725.72L3912.22+3725.78L3937.28+3724.66L3946.47+3720.88L3950.53+3719.44L3999.69+3727.94L4012.47+3743.84L4013.03+3744.69L4001.03+3735L3994.34+3736.5L3992.56+3736.91L3989.88+3737.62L3987.41+3738.69L3982.88+3742.44L3953.72+3768.31L3951.81+3770.5L3928.44+3759.91L3925.91+3756.72L3922.47+3754.22L3921.38+3753.59L3895.72+3746.34L3849.81+3736.88L3829.16+3736.31L3804.84+3737.03L3772.12+3748.31L3771.72+3748.5L3771.22+3749.03L3770.84+3750.47L3770.91+3753.19L3772.88+3769.94L3775.06+3775.84L3781.06+3787.84L3784.09+3787.88L3787.34+3787.5L3808.03+3784.91L3829.16+3779.34L3846.41+3775.72L3850.22+3778.19L3877.09+3793.31L3920.06+3817.19L3927.31+3820.91L3937.84+3825.78L3940.88+3826.81L3953.84+3830.16L3961.56+3831.25L4017.34+3837.22L4027.59+3836.38L4047.41+3834.41L4090.41+3831.69L4102.91+3829.34L4126.84+3823.12L4127.41+3822.91L4126.84+3819.09L4125.81+3814.66L4124.78+3810.41L4125.19+3808.56L4131.47+3799.12L4133.34+3796.78L4136.53+3794.44L4148.56+3786.84L4150.94+3785.47L4155.16+3784.44L4159.19+3783.88L4162.53+3783.22L4164.84+3782.16L4166.03+3780.72L4170.41+3767.5L4172.38+3758.53L4173.22+3750.59L4173.12+3741.94L4173.84+3737.19L4174.5+3735.66L4177.31+3734.66L4181.03+3733.41L4188.97+3731.47L4197.53+3729.56L4202.53+3726.94L4277.62+3678.84L4307.53+3657.16L4309.66+3648.47L4301.56+3641.91L4270.72+3618.56L4267.22+3616.19L4262.5+3614.62L4258.28+3613.44L4254.38+3612.88L4250.19+3612.56L4235.19+3604.34L4229.44+3600.56L4203.44+3582.97L4179.56+3563.22L4155.5+3542.5L4148.75+3536.56L4145.84+3533.34L4144.41+3531.28L4140.66+3525.53L4140.19+3524.72L4131.03+3510.72L4114.62+3486.28L4110.03+3479.94L4106.88+3477.06L4103.06+3474.06L4084.78+3459.94L4077.09+3447.66L4074.19+3440.38L4072.78+3436.41L4073.09+3434.97L4074.59+3429.38L4075.41+3427.06L4076.56+3425.22L4080.53+3422.03L4084.62+3418.78L4085.5+3417.75L4085.75+3416.12L4084.94+3410.94L4081+3386.91L4080.06+3384.25L4063.53+3360.91L4062.16+3359.06L4059.03+3356.41L4056.84+3354.81L4048.09+3348.44L4044.47+3345.88L4032.34+3337.31L4019.5+3328.34L4014.28+3321.38L4006.94+3311.19L3999.75+3298.47L3994.5+3284.72L3991.84+3277.5L3990.19+3271.72L3988.66+3267.72L3984.41+3261.81L3979.12+3257.06L3970.28+3251.03L3960.12+3245L3957.59+3243.5L3953.38+3241.34L3944.88+3237.25L3919.47+3234.84L3901.12+3229.53L3898.06+3228.03L3897.25+3227.62L3895.94+3226.41L3879.53+3210.34L3868.84+3211.31L3843.81+3212.19L3842.25+3211.59L3812.84+3194.44L3810.44+3191.59L3810.25+3191.41L3809.53+3190.38L3814.19+3189.62L3816.44+3189.34L3819.31+3188.84L3812.81+3182.31L3800.12+3171.22L3794.41+3168.81L3779.81+3163.12L3776.62+3161.97L3753.44+3148.62L3743.75+3142.53L3731.69+3133.88L3726.44+3129.34L3722.16+3125.5L3715.34+3118.84L3713.38+3116.62L3710.03+3112.84L3703+3105.56L3697.97+3100.69L3690.28+3093.84L3686.19+3090.25L3676.97+3084L3665.91+3076.69L3654.22+3081.31L3643.94+3067.12L3638.56+3055.22L3636.75+3052.88L3622.72+3051.56L3612.88+3050.66L3606.31+3050.38L3601.94+3051.12L3597.12+3052.5L3591.28+3053.5L3557.84+3057.69L3523.09+3060.62L3512.34+3057.88L3512.16+3057.97L3458.28+3036.44L3439.31+3023.19M3174.97+2141.31L3176.34+2138.66L3175.94+2123.06L3174.44+2121.03L3173.88+2120.28L3172.81+2117.31L3173.69+2115.28L3185.75+2104.34L3188.94+2101.94L3192.47+2100.91L3212+2100.19L3215.12+2101.59L3218.62+2102.94L3221.69+2103.34L3224.44+2102.34L3263.94+2082.72L3272.94+2075.78L3273.47+2073.47L3273.25+2069.94L3273.97+2066.28L3275.09+2063.72L3299.94+2030.47L3300.28+2030.09L3302.12+2027.94L3307+2026.94L3309.69+2027.06L3313.59+2029.09L3315.84+2030.12L3318.56+2031.16L3374.16+2005.72L3382.66+2000.28L3385.59+1996.72L3390.38+1986.75L3391.03+1985.59L3391.34+1984.94L3396.97+1976.84L3399.97+1973.28L3408.38+1964.66L3425.56+1958.38L3438.66+1953.5L3441.59+1951.75L3453.12+1937.62L3459.72+1920.09L3466.69+1916.38L3478.25+1908.69L3520.16+1873.84L3525.25+1863.28L3534.72+1852.03L3545.59+1842.69L3548.09+1842.22L3551.66+1842.75L3555.84+1843.62L3559.62+1842.78L3571.28+1833.88L3572.5+1832.28L3579.47+1821.84L3586.12+1809.28L3591.66+1798.22L3593.31+1793.38L3597.78+1758.72L3598.03+1748.69L3598.88+1744.72L3607.03+1735.53L3609.53+1733.94L3612.06+1732.72L3614.06+1731.69L3619.78+1725.5L3625.03+1716.56L3625.97+1712.59L3625.75+1708.44L3624.56+1689.88L3623.41+1679.53L3593.81+1660.62L3577.91+1650.94L3576.22+1650L3566.09+1648L3558.38+1649.16L3555.19+1647.53L3540.78+1641.41L3530.69+1645.41L3526.06+1648.22L3516.97+1653.22L3512.66+1655.31L3498.91+1661.53L3492.09+1664.12L3488.19+1662.12L3483.22+1660.09L3477.34+1658.56L3439+1649.06L3434.5+1649.22L3426.34+1651L3428.19+1644.25L3425.03+1642.16L3422.44+1640.94L3413.88+1643.09L3411.62+1644.59L3408.84+1647.19L3406.5+1649.78L3404.5+1652.28L3400.97+1655.28L3394.16+1660.25L3380.53+1664.88L3363.72+1659.62L3359.69+1656.31L3358.72+1651.94L3359.19+1634.06L3360.22+1629.97L3350.25+1593.59L3330.75+1579.97L3326.81+1577.25L3306.44+1564.75L3287.69+1559.97L3276.69+1560.53L3273.19+1560.69L3262.41+1564.28L3263.06+1543.28L3261.5+1541L3259.5+1541L3242.38+1544.22L3237.41+1546.25L3233.22+1548.03L3230.84+1549.66L3228.53+1552.03L3225.69+1554.22L3220.53+1554.34L3204.22+1553.47L3191.22+1551.97L3186.09+1549.94L3182.09+1548.16L3176.78+1545.5L3175.44+1544.81L3175.03+1543.91L3175+1543.53L3175.16+1542.69L3175.34+1542.06L3176.19+1541.44L3177.25+1541.03L3179.5+1539.69L3180.56+1539L3174.78+1530.41L3171.06+1528.44L3141.03+1520.16L3131.53+1519.12L3126.06+1518.62L3067.22+1513.47L3043.62+1517.72L3034.47+1522.72L3035.09+1523.97L3036.72+1528.94L3042.75+1548.03L3043.41+1550.22L3042.53+1552.34L3039.66+1559.34L3038.34+1562.16L3036.06+1562.94L2995.19+1575.91L2976.69+1585.5L2942.5+1564.12L2939.47+1558.5L2937.84+1554.75L2938.47+1550.81L2940.09+1547.81L2941.41+1545.94L2945+1545.25L2948.25+1544.41L2954.06+1541.09L2972.62+1494.88L2974.06+1484.88L2972.56+1483.12L2958.34+1472.69L2946.12+1467.91L2943.94+1467.91L2940.19+1464.72L2929.88+1452.44L2909.59+1416.69L2907.44+1410.72L2896.44+1372.09L2893.28+1345.56L2893.06+1342.41L2892.88+1337.91L2892.56+1333.03L2891.56+1323.88L2875.84+1292.38L2871.28+1285.38L2869.59+1283.22L2867.5+1285.16L2863.69+1289.19L2859.94+1289.28L2857.72+1288.12L2855.09+1284.06L2853.5+1280.94L2850.28+1268.25L2847.53+1255.97L2887.5+1252.56L2921.03+1249.59L2924.47+1242.94L2927.59+1235.75L2929.88+1231.31L2931.34+1229.31L2955.94+1214.91L2954.88+1198.69L2955.38+1196L2961.25+1186.09L2962.41+1184.41L2982.78+1168.69L2993.12+1169.56L3005.81+1170.75L3009.28+1171.78L3013.5+1171.88L3017.22+1171L3018.72+1169.69L3035.53+1139.69L3041.25+1119.12L3028.12+1075.81L3020.97+1065.16L3016.34+1058.81L3012.81+1054.59L3015.06+1038.41L3017.16+1035.12L3018.66+1033.66L3042.75+1024.25L3044.81+1023.81L3053.94+1023.41L3073.94+1023.66L3077.56+1024.12L3090.72+1028L3092.47+1030.16L3094.56+1031.34L3097.16+1031.66L3102.59+1030.31L3117.78+1022L3120.75+1019.62L3131.69+1008.72L3133.16+1007.19L3134.03+1004.22L3134.59+1002.12L3137.34+1001.88L3153.5+999.531L3168.09+997.062L3178.88+994.531L3227.06+974.219L3230+972.406L3231.09+970.312L3230.38+964.812L3228.78+951.875L3240.06+947.562L3280.81+941.844L3287.25+939.594L3318.31+917.625L3334.88+903.219L3341.34+895.906L3343.91+895.312L3350.41+894.25L3354.5+894.688L3356.03+895.125L3358.06+896.875L3359.69+897.375L3363.28+894.469L3366.75+890.281L3370.78+884.875L3378.06+874.094L3386.22+859.156L3390+838.969L3394.28+813.406L3395.47+795.969L3398.75+792.25L3431.91+760.344L3446.31+750.156L3447.44+750.188L3449.25+750.938L3451.12+753.594L3453.06+753.406L3503.22+744.812L3551.38+734.062L3580.97+726.062L3583.44+725.719L3586.44+726.906L3597.78+733.219L3598.81+735.281L3598.97+739.375L3677.91+756.312L3680.16+756.75L3692.41+747.969L3694.69+745.75L3698.38+741.594L3705.66+733.188L3719.31+688.312L3719.25+686.625L3716.94+677.812L3712+665.031L3710.47+644.781L3719.31+635.531L3740.78+611.188L3744.16+607.062L3745.66+605.188L3747.19+603.094L3748.5+600.156L3748.75+598.344L3740.97+591.594L3739.78+590.594L3734.22+563.844L3729.53+536.688L3730.09+534.344L3732.16+527.469L3733.66+526.031L3737.5+523.469L3749.56+516.188L3752.69+514.531L3756.41+513.312L3759.91+512.656L3763.47+511.594L3766.94+508.656L3768+505.969L3769.47+485.094L3768.5+480.375L3768.19+479.125L3760.09+449.531L3754.91+452.312L3750.47+456.094L3746+456.625L3740.06+457.094L3697.16+455.75L3677.75+453.281L3660.09+448.906L3611.16+429.25L3561.19+405.75L3560.12+405.281L3537.38+392.969L3532.53+387.906L3530.66+385.312L3526.25+383.406L3510.28+380.312L3445+368.219L3431.38+366.656L3418.19+372.781L3415.53+374.469L3410.38+380.844L3408.41+384.281L3408.56+389L3391.25+395.906L3391.16+395.906L3386.47+395.344L3377.88+393.969L3371.84+392.844L3370.03+392.156L3368.78+390.219L3369.19+387.938L3370.81+386.25L3372+385L3371.66+382.219L3369+368.188L3366.97+364.188L3354.56+348.469L3351.44+347.094L3347.84+346.438L3313.75+341.312L3297.78+340L3291.12+342.531L3287.66+346.094L3280.41+351.438L3274.53+355L3244.5+361.469L3236.88+363.875L3232.28+362.688L3224.81+359.219L3220.47+355.188L3216.81+349.531L3203.03+319.281L3200.25+308.875L3195.88+298.531L3194.34+295.312L3184.41+296.156L3179.78+296.625L3148.06+310.031L3115.5+326.125L3111.5+326.656L3051.06+321.094L3022.97+325.531L2987.06+325.625L2982.09+324.625L2941.56+313.25L2934.91+311.312L2932.28+307.5L2932.28+303.719L2933.19+297.531L2934.59+288.5L2935.78+282.5L2937.12+277.656L2891.16+260.156L2888.41+259.156L2880.66+256.531L2839.97+247.688L2837.84+251.375L2828.56+267.531L2831.78+273.469L2834.19+279.406L2835.47+286.25L2834.75+290.875L2816.03+281.031M2932.22+3296.25L2932.22+3296.28L2932.22+3300.62L2932.47+3304.28L2940.47+3304.53L2950.5+3306.66L2954.09+3308.81L2954.09+3316.72L2958.41+3323.88L2964.84+3326.03L2969.16+3333.22L2967.72+3344.69L2967.72+3350.44L2968.44+3356.91L2977.75+3360.47L2979.91+3370.53L2982.06+3377.69L2987.81+3381.28L2992.84+3386.31L2995.69+3394.91L2995.69+3399.22L2993.56+3404.97L2991.41+3412.12L2994.97+3413.56L2997.84+3415L2997.84+3420.75L2992.84+3422.19L2988.53+3423.62L2984.94+3420.75L2984.94+3426.47L2987.09+3426.47L2992.84+3422.91L2997.84+3425.75L2997.84+3431.5L2994.28+3436.53L2987.09+3437.25L2979.91+3437.25L2971.31+3435.09L2962.69+3435.09L2955.53+3434.38L2953.38+3434.38L2954.81+3443.69L2953.38+3448.72L2951.22+3455.91L2946.19+3465.22L2942.78+3467.88L2938.97+3466.34L2935.41+3465.59L2930.84+3468.62L2926.78+3470.66L2922.22+3474.72L2917.16+3477.5L2911.06+3479.78C2911.06+3479.78+2905.49+3480.79+2904.22+3480.03C2902.95+3479.27+2898.39+3476.76+2897.38+3476.25C2896.36+3475.74+2893.56+3472.94+2893.56+3472.94L2889.75+3471.44L2883.16+3471.69L2877.59+3472.19L2870.22+3469.91L2865.91+3469.41L2860.34+3469.66L2852.72+3469.12L2851.47+3466.59L2847.91+3468.12L2843.84+3473.72L2840.31+3478.28L2841.06+3481.06L2846.91+3482.06C2846.91+3482.06+2849.7+3482.08+2850.97+3482.84C2852.24+3483.6+2857.04+3485.12+2858.56+3485.12C2860.09+3485.12+2863.38+3488.16+2863.38+3488.16L2865.91+3495.53L2867.44+3498.81L2875.06+3500.09L2880.38+3500.59L2883.69+3498.31C2883.69+3498.31+2884.94+3497.59+2884.94+3497.59L2917.09+3492.84L2936.44+3491.16L2973.59+3491.72L2975.19+3492.03L2997.25+3476.25L3000.03+3474.25L3028.25+3456.47L3045.09+3448.28L3048.5+3446.97L3050.47+3446.25L3054.34+3446.06L3055.81+3446.62L3066.94+3436.97L3069.31+3434.88L3072.19+3431.47L3093.31+3399.41L3094.41+3397.62L3093.53+3393.97L3085.75+3386.09L3077.69+3380.72L3075.56+3373.91L3074.5+3370.25L3075.59+3370.28L3078.84+3370.78L3081.62+3371.25L3082.88+3371.56L3085.59+3373.22L3090.81+3377.06L3092.25+3378.31L3094.25+3380.44L3096.72+3383.03L3098.09+3384.75L3098.75+3386.06L3100+3388.66L3103.72+3394.44L3105.47+3395.34L3114.5+3396.06L3116.81+3396.12L3118.81+3396.09L3140.72+3394.56L3145.5+3393.59L3188.44+3371.44L3192.16+3369.47L3199.94+3365L3209.72+3357.66L3215.97+3352.12L3222.44+3347.72L3226.78+3345.38L3240.56+3338.06L3261.91+3326.75L3265.94+3325.44L3293+3326.16L3315.62+3327.34L3318.44+3326.81L3320.19+3326L3322.03+3323.91L3322.97+3322.34L3323.75+3316.91L3324.78+3317.22L3326.88+3310.25L3326.72+3309.53L3324.16+3305.5L3278.34+3275.31L3259.66+3252.47L3249.06+3239.28L3235.53+3206.06L3235.47+3205.66L3235.31+3188.72L3235.34+3188.06L3235.75+3184.22L3237.47+3179.09L3248.19+3158.12L3248.91+3156.78L3250.16+3155.06L3250.56+3154.59L3251.12+3154.34L3254.94+3152.72L3264.75+3138.31L3265.72+3136.91L3267.75+3134.44L3277.16+3125.12L3280.22+3112.44L3271.84+3106.72L3266.78+3102.59L3260.53+3094.41L3262.16+3091.75L3266.47+3087L3291.66+3077.81L3293.44+3077.47L3295.03+3079.25L3296.94+3081.59L3299.47+3084.69L3300.28+3085.78L3301.16+3086.84L3303.25+3089.38L3304.34+3090.53L3307.97+3087.97L3309.41+3086.78L3300.25+3067.41L3299.91+3066.84L3292.5+3055.91L3286+3047.31L3285.44+3046.59L3284.34+3045.31L3283.72+3044.72L3283.16+3044.19L3282.44+3043.72L3281.22+3042.91L3279.78+3042L3279.31+3041.72L3277.78+3040.88L3276.66+3040.44L3274.53+3039.66L3273.97+3039.47L3273.19+3039.44L3272.84+3039.5L3272.47+3039.47L3271.66+3039.16L3269.72+3038.19L3268.94+3037.72L3268+3037.16L3269.59+3034.81L3280.97+3041.38L3283.75+3043.12L3284.81+3043.88L3289.06+3047.09L3289.62+3047.62L3290.34+3048.47L3292+3050.38L3292.88+3051.47L3293.5+3052.38L3294.22+3053.38L3294.88+3054.25L3301.19+3063.91L3307.88+3074.56L3308.69+3076L3317.09+3089L3329.12+3107.25L3331.75+3110.69L3391.09+3122.44L3392.06+3122.41L3393.12+3122.16L3395.09+3121.62L3395.56+3121.38L3396.19+3120.97L3396.59+3120.66L3396.91+3120.25L3397+3119.88L3397.16+3119.25M2932.09+3295.46L2932+3294.87M2934.42+3295.3L2934.21+3295.38M2933.63+3295.64L2932.22+3296.25M3171.44+2150.22L3170.57+2151.3M3170.38+2151.53L3169.91+2152.12M3170.57+2151.3L3170.38+2151.53M1126.75+270.656L1121.81+273.719L1114.53+285.25L1113.5+309.219L1113.34+326.438L1120.69+340.125L1143.75+363.969L1149.78+368.844L1153.06+371.281L1156.12+373.156L1159.06+374.875L1151.41+379.562L1104.38+387.438L1087.06+378.281L1069.69+370.312L1021.66+385.969L1004.84+393.719L1001.03+396.031L983.062+412.719L980+416.844L979.281+418.812L977.969+423.875L977.656+426.406L977.625+426.469L976.188+428.625L972.312+431.375L959.25+438.969L953.688+440.781L891.844+462.312L886.312+464.344L871.531+472.094L863.281+476.438L849.656+483.25L837.812+488.969L840.5+500.688L840.656+503.656L840.5+507.688L838.531+520.438L836.312+529.625L836.156+530.062L869.375+566.812L872.969+570.125L892.25+584.469L895.656+586.125L898.625+587.062L901.031+588.594L908.656+600.188L923.625+643.188L923.562+645.188L923.406+647.5L915.344+654.625L907.469+657.312L902.938+656.469L887.469+652.531L876.344+641.5L873.5+635.938L869.406+631.844L854.656+626.969L845.031+624.312L811.156+620.938L808.281+621.969L804.156+624.25L802.656+625.406L800.438+627.094L778.719+652L775.406+657.312L773.5+660.688L771.531+661.25L767.75+659.594L761.469+656L754.5+649.344L741.094+637.469L736.125+635.188L718.281+628.812L674.125+620.531L666.594+623.969L647.938+636.062L637.531+643.531L617+661.438L609.375+668.062L598.625+678.5L597.906+679.969L584.719+677.062L569.031+658.469L568.562+658.375L566.906+659.844L559.469+675.25L558.406+677.969L558.344+681.719L558.312+686.906L558.875+691.594L560.719+700.844L541.625+718.406L526.688+724.188L522.469+726.312L501.125+744.344L497.688+747.75L494.375+751.719L491.656+755.406L483.312+768.406L482.188+771.219L482.438+774.594L475.75+789.188L468.938+797.781L466.438+801.875L465.062+804.25L465.531+806.312L470.562+826.938L481.812+847.5L481.812+847.531L472.938+848.156L469.406+850.312L461.656+856.062L457.156+859.906L433.781+882.188L426.969+894.938L425.344+898.25L403+926.844L391.125+932.344L389.094+932.875L369.438+923.656L364.406+921.125L367.844+939.562L368.469+942.844L368.5+942.938L369.844+946.562L372.094+949.812L374.031+952.406L379.156+961.438L380.344+966.406L385.688+1001.47L350.688+1032.16L348.719+1033.75L347.219+1033.97L325.562+1039.44L293.25+1064.88L266.438+1054.59L262.75+1053.16L267.781+1060.44L271.812+1083.31L272.531+1090.75L273.094+1097.19L268.781+1104.28L265.125+1110.25L247.688+1137.03L241.594+1140L213.625+1147.25L210.594+1147.47L185.344+1144.69L166.562+1140.06L161.5+1137.03L159.375+1135.94L156.844+1136.47L153.594+1138.31L153.125+1138.59L150.719+1140.41L148.406+1142.59L138.75+1156.19L120.938+1158.12L119.438+1158.75L89.125+1182.31L92.1875+1186.38L95.25+1190.41L97.9062+1194.88L99.8438+1201.06L100.906+1204.69L100.75+1207.47L83.1562+1271.97L75.75+1277.19L65.5312+1283.91L28.2188+1306.75L26.0938+1307.97L24.9375+1309.53L7.53125+1345.78L2.5+1361.38L2.53125+1361.44L4.09375+1365.47L4.09375+1365.53L5.71875+1368.66L3.28125+1377.31L10.75+1411.53L12.1875+1412.69L12.75+1413.16L14.25+1414.34L15.9062+1414.88L21.0625+1415.28L35.4062+1439.94L40.4375+1453.75L41.875+1457.16L43.0312+1459.44L47.75+1466.97L49.4062+1468.81L50.875+1468.16L52.625+1465.91L53.8438+1464.41L60.125+1463.28L62.1875+1463.06L62.9688+1463.44L63.9375+1463.94L71.25+1467.78L72.75+1468.69L86.0938+1478.94L94.2812+1489.31L99.4375+1496.88L107.906+1504.53L113.938+1505.59L116.312+1504.31L118.719+1503L121.094+1502.53L123.375+1503.41L129.062+1507.06L131.875+1509.06L141.188+1522.59L141.031+1522.84L152.188+1526.25L155.062+1525.34L158.406+1523.78L172.25+1516.91L186.688+1509.69L190.594+1507.69L223.094+1507.31L233.844+1520.09L239.312+1528.41L239.156+1533.16L238.281+1538.59L236.781+1541.12L235.562+1542.28L233.625+1543.59L231.031+1544.44L228.875+1544.47L227.25+1545.88L223.531+1551.25L216.562+1568.16L217.531+1569.19L221.188+1572.88L226.531+1578.06L230.062+1581.06L232.75+1582.44L235.406+1583.31L265.594+1578.59L286.625+1575.28L289.188+1575L292.75+1574.69L295.375+1574.56L298.344+1574.69L327.719+1578.34L341.156+1580.69L335.938+1585.66L330.531+1610.28L329.875+1613.25L330.125+1616.62L330.344+1618.84L345.312+1671.41L352.125+1686.19L369.312+1713.78L391.094+1731.66L393.344+1732.56L405.438+1735.16L427.406+1745.5L462.625+1763.12L469.469+1772.19L474.25+1778.69L474.312+1779.81L474.156+1782.66L473.094+1786.03L472.531+1787.25L471.344+1789.66L470.219+1794.09L475+1818.81L477.562+1824.34L480.281+1827.34L481.812+1829.25L482.375+1831.91L482.281+1834.47L481.281+1837.88L480.062+1841.72L477.5+1849.28L477.969+1860.44L475.594+1861.41L472.438+1862.78L469.844+1864.78L469.062+1865.81L469.031+1865.88L467.969+1867.47L467.25+1868.62L463.656+1877L463.188+1880.75L464.562+1883.06L466.594+1885.09L468.469+1886.5L469.906+1889.94L469.75+1890.88L469.594+1892.16L469.031+1893.41L462.219+1907.34L461.75+1908.22L458+1913.47L455+1916.47L444.219+1949.38L443.562+1951.12L440.75+1954.88L411.062+1981.44L407.188+1983.84L390.688+1993.12L363.281+2007.62L345.031+2017.03L331.375+2023.81L329.5+2023.88L321.75+2022.69L319.781+2022.22L316.938+2021.56L290.938+2052.09L288.094+2059.84L284.812+2070.38L280.719+2081.19L275.906+2090L271.531+2096.31L262.219+2108.81L259.156+2112.56L253.719+2113.88L242.625+2113.69L233.625+2141.69L230.125+2165.03L230.156+2170.12L229.531+2172.56L227.812+2173.44L224.438+2174.62L220.562+2175.62L213.094+2177.28L216.625+2182.41L221.406+2188.44L223.188+2190.28L231.844+2199.38L232.719+2200.19L234.125+2200.94L235.094+2201.44L237.812+2203.19L239.719+2204.5L241.156+2206.31L243.719+2209.81L254.75+2225.34L254.781+2225.41L255.75+2226.94L257+2229.44L260.031+2245.31L260.031+2247.09L259.219+2249.28L258.562+2250.69L256.094+2254.16L264.031+2278.69L264.25+2283.22L266.156+2297.41L279.719+2323L291.781+2341L292.5+2349.75L291.281+2369.97L285.844+2400.75L279.5+2464.41L275.906+2483.03L275.969+2483.44L276+2483.75L285.156+2513.66L285.375+2514.34L285.469+2514.59L285.5+2514.66L286.281+2515.84L291.281+2517.75L303.656+2521.53L305.75+2521.88L307.531+2522.09L309.562+2522.19L315.219+2521.41L318.625+2520.72L328.781+2517.06L330.188+2516.31L360.125+2514.66L362.125+2515.47L366.031+2519.12L366.062+2526.84L367.75+2531.44L368.531+2532.81L386.062+2560.66L415.281+2581.06L417.312+2582.34L428.844+2587.69L438.812+2592.31L444.656+2593.22L446.625+2592.69L448.656+2591.94L462.531+2591.62L482.656+2592.84L485.781+2593.31L487.844+2594.03L488.656+2594.44L489.969+2595.12L494.094+2597.34L498.062+2599.66L499.562+2600.53L501.781+2603L504.062+2606L506.75+2612.56L506.906+2613.12L506.906+2614.56L503.781+2619.81L501.781+2623.03L500.562+2624.59L500.781+2626.47L500.844+2626.62L513.344+2651.25L521.625+2662.94L523.312+2664.72L528.25+2669.72L530.031+2670.56L548.219+2673.44L546.125+2675.44L535.688+2684.16L534.312+2684.97L520.344+2690.59L519.875+2690.56L516.219+2689.72L511.969+2689.03L505.969+2690.22L504.531+2692.22L529.844+2720.19L548.594+2733.28L559.219+2738.47L563.688+2740.44L572.625+2749.28L583.531+2787.53L585.625+2796.88L584.906+2797.75L584.062+2798.62L581.125+2798.25L580.719+2798.19L577.188+2798.34L574.156+2799.59L572.906+2800.94L572.844+2800.97L565.344+2812.44L566.188+2814.94L569.5+2816.88L619.438+2825.41L627.031+2842.09L644.719+2874.28L645.031+2878.16L644.375+2882.38L642.906+2886.66L632.438+2899.41L630.875+2900.62L628.312+2901.38L624.031+2901.94L620.219+2901.44L626.594+2913.44L631.375+2937.28L631.438+2937.56L645.5+2950.09L647.781+2950.94L651.406+2950.28L652.406+2949.91L654.062+2948.62L661.531+2935.69L661.75+2934.62L660.562+2933.19L659.469+2932.06L658.344+2930.69L658.75+2929.12L659.75+2928.62L661.75+2928.97L661.781+2929L664.188+2930.56L665.938+2932.31L667.375+2933.97L668.219+2935.59L669.375+2939.19L671.094+2944.91L671.25+2946.06L682.25+2955.69L696.5+2950.69L699.75+2949.72L702.156+2950.62L704.719+2953L706.875+2956.19L707.781+2959.19L708.438+2961.72L713.344+2973L722.062+2988.19L723.188+2988.91L726.656+2989.28L737.312+2989L738.844+2988.66L739.781+2988.06L741.656+2986.84L742.719+2985.88L743.438+2985.06L743.656+2982.75L742.844+2980.69L740.625+2977.78L737.531+2975.16L734.969+2973.25L734.25+2971.72L734.875+2970.94L735.969+2970.19L745.656+2963.94L746.75+2963.5L747.719+2963.44L748.344+2963.69L744+2949.44L743.031+2946.12L740.219+2932.41L742.062+2930.44L753.438+2918.97L770.75+2905.94L772.562+2908.94L773.531+2911.19L775.969+2916.09L777.969+2919.12L786.562+2928.69L788.125+2930.22L789.531+2931.34L798.312+2937.38L801.094+2938.5L812.438+2942.97L817.25+2942.12L819.188+2940.53L820.031+2939.78L839.125+2950.41L864.281+2971.06L880.031+2969.31L881.062+2969.66L882.281+2970.78L882.938+2971.38L883.656+2972.09L887.844+2980.44L887.906+2981.53L883.906+2991.69L881.25+2997.19L901.094+3009L901.656+3011.06L901.031+3018.53L894.469+3026.53L891.031+3029.94L910.156+3052.56L912.688+3054.44L915.219+3057.28L918.781+3061.47L921.812+3065.66L922.125+3067.66L921.969+3069.56L921.719+3070.22L941.656+3075.75L943.375+3076.12L945.688+3075.91L954.375+3072.16L956.062+3071.28L958.938+3069.19L959.812+3068.47L969.375+3060.34L1003.56+3027.78L1011.75+3020.31L1022.19+3004.59L1045.16+2980.84L1046.5+2980.09L1047.59+2979.47L1058.91+2968.47L1065.59+2960.81L1065.75+2960.66L1073.97+2950.25L1075.5+2947.91L1076.69+2945.56L1077.16+2944.31L1088.56+2929.31L1103.12+2911.81L1106.12+2909.38L1111.88+2910.78L1117.81+2917.41L1118.22+2918.53L1117.56+2920L1117+2920.75L1124.62+2931.53L1125.59+2932.91L1127.5+2935.06L1130.09+2937.78L1136.06+2943.5L1138.72+2946.03L1140.38+2947.31L1140.78+2947.62L1143.25+2945.97L1152.53+2939.34L1154.47+2937.88L1155.34+2937.22L1156.69+2935.78L1158.88+2933.31L1162.28+2929.03L1165.22+2924.84L1173.09+2914.66L1180.09+2906.38L1182.5+2903.91L1184.41+2902.22L1198.94+2891.38L1201.72+2889.72L1210.75+2880.88L1210.72+2880.81L1210.56+2880.59L1203.44+2872.56L1211.03+2863.94L1212.69+2862.06L1227.59+2852.69L1233.41+2850.28L1240.53+2847.84L1242.5+2848.34L1246+2849.56L1250.34+2853.44L1264.06+2866.12L1286.72+2878.09L1295.44+2877.56L1306.12+2882.78L1306.19+2882.78L1306.5+2883.03L1305.88+2892.72L1294.75+2921.34L1293.47+2923.25L1291.59+2924.66L1291.19+2925.62L1291.12+2926.97L1294.75+2950.81L1299.16+2960.03L1299.72+2960.72L1299.97+2961L1313.72+2970.25L1318.12+2970.75L1320.19+2970.06L1345.84+2955.88L1345.84+2955L1345.84+2953.5L1345.91+2933.97L1361.47+2914.91L1362.59+2915.5L1368.38+2916.31L1372.59+2915.84L1386.28+2905.84L1396.59+2894.91L1395.19+2886.19L1394.56+2882.16L1394.53+2881.97L1394.03+2880.41L1394.34+2872.88L1442.47+2863.62L1459.94+2860.94L1490.53+2869.66L1500.69+2879.12L1503.22+2888.16L1485.5+2923.19L1490.12+2926.19L1539.53+2958.44L1540+2960.53L1537.81+2969.66L1542.19+2971.75L1545.88+2972.47L1546.44+2972.47L1564.31+2961.69L1594.53+2949.62L1605.19+2954.78L1616.88+2936.28L1620+2930.69L1622.31+2933.72L1628.41+2945.03L1629.88+2950.72L1630.75+2955.91L1632.53+2959.5L1638.62+2970.78L1642.12+2977.12L1644.22+2980.84L1677.72+2970.12L1686.47+2967.19L1688.03+2966.66L1710.97+2963.09L1705.12+2941.69L1703.53+2940.72L1702.19+2938.31L1701.94+2917.84L1703.28+2888.88L1712.5+2877.34L1720.56+2873.22L1730.41+2874.97L1732+2876.97L1733.94+2879.41L1734.75+2880.44L1736.75+2883.59L1739.22+2887.44L1739.69+2888.25L1739.94+2888.69L1743.66+2895.56L1764.28+2913.69L1777.97+2920.97L1779+2923.22L1778.66+2923.22L1777.66+2920.97L1758.88+2937.12L1755.62+2940.28L1756.12+2942.47L1761+2953.03L1762.81+2956.62L1764.53+2959.31L1768+2959.12L1769.66+2958.72L1770.81+2958.41L1771.06+2958.34L1772.16+2958.03L1772.56+2950L1785.78+2945.19L1778.12+2954.84L1776.78+2955.69L1775.22+2956.66L1772.41+2959.91L1770.75+2960.53L1767.5+2961.75L1763.72+2961.66L1762.47+2963.84L1761.38+2968.91L1762.19+2970.38L1768.03+2974.03L1770.25+2974.88L1771.56+2975.41L1775.09+2976.38L1778.06+2976.66L1779.69+2976.84L1783.75+2976.12L1785.47+2975.94L1790.16+2975.56L1792.72+2975.94L1794.25+2976.19L1798+2977.25L1798.06+2977.28L1802.66+2979.75L1803.38+2980.25L1808.47+2983.69L1812.75+2986.84L1815.91+2989.25L1816.38+2992.22L1815.31+2997.34L1811.44+3006.22L1808.94+3009.38L1807.41+3010.19L1806.19+3010.69L1802.81+3011.75L1799.81+3011.03L1796.69+3008.22L1794.12+3005.34L1792.56+3001.41L1791.94+2997.47L1791+2992.75L1789.59+2989.69L1785.59+2988.5L1783.91+2988.78L1779.84+2989.94L1779.28+2990.09L1776.75+2990.84L1774.44+2993.88L1764.59+3015.84L1763.69+3019.28L1765.25+3022.91L1782.19+3055.06L1783.69+3057L1783.91+3057.31L1786.5+3058.94L1790.06+3059.72L1794.25+3058.62L1797.28+3055.91L1798.31+3053.22L1798.62+3049.44L1799.19+3046.16L1800+3042.75L1801.38+3039.97L1801.69+3039.59L1803.38+3038.44L1804.31+3038.19L1806+3037.78L1808.84+3040.06L1810.75+3043.09L1811.69+3046.97L1811.78+3050.91L1810.53+3054L1807.53+3056.66L1804.84+3058.09L1783.53+3068.38L1783.47+3090.09L1801.62+3128.59L1826.16+3149.16L1854.59+3166.34L1852.97+3184.41L1844.66+3199.78L1837.59+3222.34L1837.34+3224.97L1838.22+3228.19L1840.75+3231.34L1847.78+3237.38L1852.28+3241.09L1857.69+3243.75L1862.72+3245.5L1866.31+3246.69L1869.56+3247.59L1872.62+3249.06L1875.47+3251.06L1876.38+3253.47L1877.47+3272.91L1876.38+3275.28L1873.78+3277.09L1870.41+3278.97L1865.88+3281.09L1861.81+3283.38L1858.31+3285.94L1855.66+3290.41L1854.81+3296.38L1854.56+3298.16L1854.41+3302.88L1854.91+3308.06L1856.56+3312.44L1857.94+3313.62L1860.69+3314.81L1862.38+3315.44L1863.72+3315.94L1865.41+3316.5L1866.81+3316.97L1869.81+3316.81L1871.69+3315.84L1874.72+3313.94L1876.72+3311.78L1877.44+3309.53L1878+3307.91L1878.06+3304.81L1878.09+3300.75L1877.62+3296.69L1877.47+3293.72L1878.56+3291.81L1887.66+3282.47L1892.88+3278.12L1897.84+3274.06L1902.5+3271.16L1905.81+3269.56L1906.84+3269.41L1908.56+3269.25L1911.25+3269.97L1912.56+3271.38L1913.03+3271.88L1912.56+3275.59L1910.66+3279.91L1910.41+3280.97L1909.47+3284.69L1908.75+3288.72L1907.94+3294.94L1907.88+3301.06L1909.69+3306.03L1913.41+3309.59L1917.62+3312.22L1920.88+3313.5L1924.19+3315.28L1930.78+3319.12L1935.22+3322.06L1938.5+3325.25L1939.81+3328.47L1940.38+3331.44L1938.5+3361L1932.69+3398.28L1932.28+3400.72L1932.31+3400.78L1933.56+3403.78L1936.78+3406.78L1955.5+3423.72L1957.28+3424.03L1958.62+3423.78L1960.31+3423.47L1961.38+3420.94L1962.25+3417.53L1963.22+3414.78L1964.69+3413.09L1968.41+3412.25L1971.69+3412.66L1975.28+3414.5L1977.03+3417.78L1977.84+3421.22L1977.34+3424.59L1975.53+3430.94L1974.19+3434.97L1972.38+3438.69L1970.31+3442.59L1968.09+3445.28L1966.12+3446.75L1964.47+3447.16L1962.38+3447.41L1958.66+3446.59L1955.31+3445.69L1954.12+3445.94L1953.66+3446L1952.75+3447.22L1951.69+3450L1951.78+3453.56L1953.88+3457.75L1956.59+3460.44L1976.78+3478.91L1980.5+3481.66L1982.44+3482.28L1983.44+3482.59L1984.78+3481.88L1987.66+3479.41L1993+3475.12L1996.75+3474.66L1999.78+3474.97L2002.75+3476.19L2005.44+3479L2009.19+3486L2010.31+3489.12L2014.28+3500.69L2014.69+3506L2005.56+3521.88L2003.31+3526.72L2003.16+3527.12L2001.41+3532.94L2001.09+3534.5L2001+3536.16L2001+3539.16L2001.19+3544.38L2001.25+3545.88L2001.31+3546.66L2002.09+3549.22L2003.66+3553.62L2004.22+3554.84L2005.19+3556.59L2005.91+3557.75L2006.72+3558.81L2008.12+3559.97L2008.59+3560.31L2009.31+3560.62L2009.97+3560.69L2010.59+3560.66L2011.66+3560.34L2013.59+3559.78L2014.81+3559.22L2018.41+3557.34L2021.84+3555.12L2023.69+3553.88L2027.03+3551.94L2032.88+3549.12L2034.97+3548.25L2036.34+3547.94L2038.12+3547.62L2039.94+3547.44L2041.31+3547.44L2043.53+3547.5L2046.06+3547.66L2048.41+3548L2049.97+3548.31L2052.09+3548.94L2053.06+3549.19L2058.41+3551.94L2060+3553.12L2060.78+3553.78L2061.53+3554.56L2062+3555.47L2062.31+3556.72L2062.38+3557.28L2062.34+3558.09L2062.19+3558.94L2062+3559.56L2069.22+3576.66L2099.88+3600.12L2101.97+3601.62L2106.12+3604.59L2110.22+3583.97L2113.97+3570.22L2116.97+3561.06L2119.19+3555.22L2122.34+3547.53L2129.12+3534.66L2130.97+3531.88L2132.44+3529.81L2134.22+3527.72L2136.53+3525.22L2150.44+3511.06L2152.91+3508.78L2166.97+3496.22L2172.75+3491.28L2186.09+3480.41L2196.5+3472.09L2208.94+3461.97L2219.94+3452.97L2224.66+3448.47L2233.84+3439.66L2236.19+3436.78L2240.38+3431.62L2244.69+3425.03L2246.88+3420.03L2247.59+3417.44L2248+3415.28L2248.09+3414.06L2247.09+3410.28L2245.25+3408.34L2239.06+3406.31L2238.41+3403.72C2238.41+3403.72+2228.06+3399.94+2228.06+3399.94L2224.5+3397.38L2225.03+3401.94L2220.97+3408.56L2210.81+3416.16L2201.19+3425.28L2193.06+3431.38L2179.88+3435.44L2155.53+3445.59L2142.31+3451.66L2129.12+3452.19L2124.56+3453.19L2124.06+3447.59L2117.97+3443.03L2112.91+3443.03L2107.31+3440.5L2104.28+3436.44L2113.41+3421.75L2115.44+3415.66L2116.97+3411.59L2112.41+3413.62L2107.31+3421.22L2099.72+3432.38L2094.12+3435.94L2089.06+3440L2088.03+3447.09L2087.53+3453.19L2083.47+3457.25L2066.22+3462.31L2056.09+3464.84L2045.94+3456.75L2042.91+3450.66L2042.38+3443.56L2044.41+3436.44L2047.97+3436.44L2052.03+3429.34L2043.91+3433.41L2043.41+3428.84L2044.94+3424.28L2045.44+3420.22L2049.5+3416.16L2052.03+3408.56L2051+3406.53L2044.94+3406.53L2040.38+3405L2035.28+3395.34L2033.75+3384.19L2030.22+3372.03L2024.12+3365.94L2016+3356.28L2021.59+3354.78L2027.16+3345.12L2033.25+3346.66L2045.44+3346.66L2050+3353.25L2056.09+3355.28L2057.59+3349.69L2056.59+3343.09L2052.03+3338.03L2045.94+3337.03L2038.84+3336L2046.97+3332.44L2053.03+3331.44L2060.16+3327.88L2064.19+3329.91L2068.25+3329.91L2072.31+3329.41L2072.31+3326.38L2070.28+3321.28L2068.25+3314.69L2074.34+3312.16L2080.44+3309.12L2081.97+3307.09L2079.44+3302L2076.88+3298.97L2080.44+3296.44L2082.97+3293.91L2082.47+3288.81L2079.94+3281.72L2082.47+3276.66L2086.53+3273.59L2091.59+3273.59L2097.69+3276.16L2102.25+3277.66L2105.28+3283.25L2108.34+3284.78L2110.88+3288.31L2113.41+3289.34L2111.38+3283.25L2111.88+3280.72L2110.38+3275.62L2108.84+3270.56L2112.41+3265.5L2116.47+3267L2121.03+3265.5L2123.56+3265.5L2128.12+3263.47L2131.16+3263.47L2131.16+3268.03L2133.69+3272.59L2134.72+3276.16L2136.75+3276.16L2139.28+3272.09L2142.84+3274.12L2143.84+3278.16L2145.88+3282.75L2151.97+3289.34L2156.53+3287.31L2160.09+3289.84L2165.16+3290.84L2168.19+3290.34L2166.69+3287.31L2168.72+3283.25L2171.25+3276.16L2173.28+3269.56L2172.75+3263.97L2169.22+3254.84L2169.22+3252.31L2174.28+3248.75L2175.81+3244.69L2172.75+3244.69L2167.19+3248.75L2161.59+3250.28L2155.53+3254.34L2149.94+3257.38L2145.88+3255.84L2143.84+3252.81L2145.88+3250.78L2143.84+3247.22L2141.81+3241.12L2141.31+3235.06L2143.34+3231.5L2146.38+3229.97L2142.84+3225.41L2141.31+3223.38L2139.78+3222.38L2139.28+3226.44L2136.75+3229.47L2135.22+3231.5L2128.12+3235.06L2123.56+3235.06L2124.56+3230.5L2127.62+3222.88L2132.19+3220.84L2136.75+3221.88L2139.78+3218.31L2139.78+3213.25L2142.84+3207.66L2148.41+3205.62L2152.97+3202.59L2153.5+3197.5L2155.53+3194.97L2156.53+3192.44L2152.97+3189.41L2148.94+3186.84L2146.38+3178.75L2146.91+3176.22L2148.41+3173.16L2145.88+3169.59L2148.41+3168.09L2155+3165.03L2159.06+3165.03L2166.69+3163L2170.75+3162.5L2174.78+3159.97L2176.81+3159.47L2176.31+3154.91L2174.78+3151.34L2181.38+3145.78L2183.41+3142.72L2184.94+3145.78L2183.94+3151.84L2181.38+3155.91L2182.91+3158.44L2186.47+3154.91L2190+3155.41L2188.5+3158.97L2193.56+3157.44L2194.06+3162L2196.59+3164.03L2197.62+3161L2200.16+3163.53L2198.12+3166.06L2197.12+3168.59L2198.12+3173.16L2203.19+3175.19L2204.22+3177.72L2203.19+3181.28L2203.19+3186.34L2201.69+3189.91L2203.19+3193.97L2204.22+3198.53C2204.22+3198.53+2206.25+3201.06+2204.22+3201.06C2202.19+3201.06+2201.19+3201.06+2201.19+3201.06L2198.12+3203.59L2198.62+3207.66L2199.16+3213.75L2198.62+3219.84L2199.16+3224.41L2203.19+3217.28L2206.25+3217.81L2210.31+3218.31L2215.38+3221.88L2216.91+3220.84L2215.38+3216.78L2212.84+3211.72L2213.34+3209.69L2215.88+3208.66L2219.44+3212.22L2221.47+3217.81L2224+3222.38L2227.56+3220.34L2231.62+3220.84L2231.62+3218.31L2231.62+3215.28L2229.06+3214.75L2226.53+3213.25L2227.03+3208.16L2229.59+3206.66L2232.62+3201.06L2234.66+3197L2239.22+3191.94L2244.28+3189.41L2249.38+3190.41L2252.41+3183.81L2257.47+3184.31L2263.06+3188.38L2270.69+3193.44L2273.72+3189.22L2275.88+3187.06L2279.81+3182.56L2283.94+3181.31L2286.28+3178.81L2287.53+3171.81L2288.44+3167.69L2291.12+3169.47L2292.56+3168.22L2290.94+3165.34L2293.81+3163.03L2295.25+3157.47L2295.78+3154.41L2303.5+3157.09L2312.28+3158.53L2317.31+3160.34L2319.09+3159.97L2316.03+3158.34L2318.75+3158L2320.88+3158.19L2323.75+3159.78L2326.62+3161.22L2329.12+3161.75L2331.28+3159.62L2330.75+3156.75C2330.75+3156.75+2329.15+3154.4+2328.97+3153.5C2328.79+3152.6+2327.88+3150.28+2327.88+3150.28L2329.31+3149.56L2331.47+3149.03C2331.47+3149.03+2331.47+3147.61+2330.75+3147.25C2330.03+3146.89+2328.41+3145.81+2328.41+3145.81L2326.81+3142.75L2328.25+3138.81L2328.78+3135.75L2328.78+3131.09L2328.78+3127.34L2328.41+3122.5L2328.06+3118.72L2328.78+3116.03L2333.09+3114.78C2333.09+3114.78+2334.17+3116.03+2335.25+3116.75C2336.33+3117.47+2338.81+3120.5+2338.81+3120.5L2340.62+3121.22L2344.22+3121.78L2347.25+3121.59L2350.47+3120.69L2352.28+3118.38L2352.47+3116.03L2353+3113.69L2354.06+3112.09L2355.69+3112.25L2356.03+3114.78L2357.28+3115.84L2358.38+3115.31L2359.62+3116.38L2360+3118.53L2361.59+3120.88L2363.22+3123.38L2366.09+3125.19L2369.09+3126.75L2370.09+3129.53L2370.88+3131.94L2370.75+3136.62L2371.5+3138.66L2372.25+3140.94L2373.78+3141.31L2379.88+3141.47L2384.69+3141.72L2393.81+3141.06L2394.97+3139.69L2397.62+3137.78L2399.78+3136.5L2401.19+3137C2401.19+3137+2401.43+3138.03+2402.19+3138.03C2402.95+3138.03+2405.62+3138.03+2405.62+3138.03C2405.62+3138.03+2406.38+3137.51+2406.25+3137C2406.12+3136.49+2406.5+3134.47+2406.5+3134.47C2406.5+3134.47+2407.78+3133.2+2408.03+3132.56C2408.29+3131.93+2409.69+3130.03+2409.69+3130.03C2409.69+3130.03+2409.69+3128.76+2409.81+3128C2409.94+3127.24+2411.06+3125.09+2411.06+3125.09L2411.44+3122.94L2413.34+3121.66L2415.88+3120.28L2416.91+3119L2419.06+3118.62L2423.38+3118.62L2426.53+3119.38L2430.09+3119.78L2432.12+3119.91L2434.03+3122.69C2434.03+3122.69+2435.69+3125.46+2435.81+3125.97C2435.94+3126.48+2436.44+3130.56+2436.44+3130.56L2436.44+3137.53L2436.56+3144.12L2436.81+3150.72L2437.84+3157.06L2439.59+3161.25L2441.12+3164.03L2443.91+3167.59L2445.06+3170L2445.31+3173.66L2445.94+3178.62L2446.59+3181.91L2448.47+3184.19L2452.53+3185.84L2456.34+3187.12L2461.03+3188.88L2464.22+3190.16L2469.22+3190.47L2471.91+3189.94L2474.25+3187.06L2476.91+3186.34L2477.41+3188.88L2479.19+3192.44L2481.22+3193.72L2486.28+3192.94L2489.81+3192.69L2496.16+3193.97L2499.47+3194.97L2503.28+3199.03C2503.28+3199.03+2506.83+3200.56+2508.09+3200.81C2509.36+3201.07+2514.69+3202.59+2514.69+3202.59C2514.69+3202.59+2515.94+3202.34+2517.97+3202.34C2520+3202.34+2526.36+3201.81+2527.38+3201.81C2528.39+3201.81+2530.91+3201.31+2530.91+3201.31L2535.22+3198.03L2539.78+3195.47L2544.88+3195.47C2544.87+3195.47+2546.65+3198.27+2546.91+3199.28C2547.16+3200.3+2548.69+3202.34+2548.69+3202.34C2548.69+3202.34+2551.7+3202.59+2552.72+3202.59C2553.73+3202.59+2555.78+3199.03+2555.78+3199.03C2555.78+3199.03+2557.04+3197.51+2558.31+3197C2559.58+3196.49+2561.88+3194.72+2561.88+3194.72L2564.91+3191.94C2564.91+3191.94+2568.45+3193.71+2569.47+3193.97C2570.48+3194.22+2574.03+3194.74+2574.03+3195.75C2574.03+3196.76+2574.81+3199.78+2574.81+3199.78L2576.06+3204.34L2578.84+3208.94L2584.94+3207.16L2587.75+3206.12L2591.78+3207.41L2596.09+3206.12L2599.91+3204.34L2605.75+3204.62L2607.28+3205.62L2609.03+3201.56L2612.59+3200.06L2621.72+3201.81L2626.03+3203.59L2630.84+3203.84L2635.44+3206.12L2637.44+3208.41L2641.5+3208.16L2646.59+3205.88L2650.66+3205.88L2653.44+3208.94C2653.44+3208.94+2657.24+3208.94+2658.25+3208.94C2659.26+3208.94+2665.09+3208.94+2665.09+3208.94L2670.69+3210.19C2670.69+3210.19+2672.7+3210.2+2673.97+3209.69C2675.24+3209.18+2679.31+3206.12+2679.31+3206.12L2682.84+3206.91L2685.12+3209.19L2688.94+3211.72L2690.22+3215.53L2690.22+3219.84L2693+3224.16L2695.78+3225.66L2699.84+3223.38L2701.88+3225.66L2704.66+3227.19L2707.72+3227.94L2709.75+3230.22L2711.53+3231.25L2716.34+3229.97L2720.16+3228.47L2722.94+3228.47L2725.47+3232.25L2728+3235.31L2730.03+3236.56L2735.38+3234.81L2739.69+3234.53L2742.72+3235.56L2746.53+3236.81L2752.09+3239.62L2753.12+3242.41L2753.38+3248.75L2754.91+3253.06L2757.69+3253.81L2762+3254.59L2764.78+3253.56L2768.34+3253.56L2770.88+3255.59L2774.44+3257.38L2779.25+3258.91C2779.25+3258.91+2781.01+3258.65+2782.28+3258.91C2783.55+3259.16+2789.91+3260.94+2789.91+3260.94L2798.78+3262.19L2809.19+3263.72L2814.75+3264.72L2819.56+3267C2819.56+3267+2821.35+3270.81+2822.88+3270.81C2824.4+3270.81+2826.94+3272.84+2826.94+3272.84L2830.22+3276.66C2830.22+3276.66+2833.02+3278.93+2834.03+3279.19C2835.05+3279.44+2837.08+3279.94+2838.09+3279.94C2839.11+3279.94+2840.12+3277.66+2840.12+3277.66L2843.16+3280.72L2847.72+3281.97L2852.81+3283.75L2856.84+3284.78L2857.62+3288.31L2861.94+3289.09L2862.44+3292.38L2864.97+3296.94L2867+3298.72L2871.06+3299.72L2875.12+3298.97L2880.19+3298.72L2883.25+3299.72L2886.03+3303.03L2889.06+3304.81C2889.06+3304.81+2892.11+3304.55+2892.88+3303.53C2893.64+3302.52+2897.69+3301.5+2897.69+3301.5L2901.5+3302L2904.81+3299.22L2906.56+3298.47L2907.09+3294.66L2909.88+3294.66L2911.66+3296.19L2913.44+3298.97L2919.75+3298.97L2928.38+3298.97L2931.94+3296.38L2932.22+3296.25L2932.09+3295.46M2816.03+281.031L2798.88+285L2765.75+281.219L2763.59+281.75L2742.44+304L2731.72+315.906L2709.88+335L2698.16+342.625L2688.53+343.281L2683.97+343.344L2676.31+341.094L2669.31+338.844L2664.62+336.312L2661.53+334.312L2655.66+330.031L2649.81+325.719L2615.97+317.969L2569.62+313.125L2561.59+312.531L2516.16+315.094L2507.97+319.188L2488.94+331L2474.75+341.562L2461.69+340.094L2462.56+331.688L2461.19+321.781L2460.72+319.719L2446.16+303L2422.47+280.219L2383+273.906L2378.84+274.5L2370.91+275.094L2365.47+275.438L2360.94+273.719L2356.03+271.781L2318.97+252.844L2316.69+251.406L2290.75+223.906L2289.31+216.281L2288.69+213.719L2282.19+212.75L2247.81+214.031L2171.94+205.219L2167.09+204.094L2163.62+203L2161.16+200.781L2155.06+196.562L2151.25+194.469L2129.38+188.656L2126.09+191.062L2121.25+193.625L2118+192.406L2100.09+185.25L2097.09+183.875L2092.28+181.156L2088.19+177.594L2084.12+173.156L2078.28+171.219L2065.75+168.25L2062.5+167.531L2059.72+167.094L2011.78+176.406L2001.12+181.281L1986.94+182.75L1966.41+189.344L1962.28+190.375L1958.22+190.312L1932.78+186.094L1908.56+179.594L1897.03+168.531L1894.53+166.969L1892.16+166.031L1879.84+167.125L1869.75+170.219L1839.38+166.25L1835.59+165.062L1831.94+165.5L1815.09+170.25L1811.34+175.219L1801.12+175.719L1797.72+174.906L1771.16+167.531L1747.97+160.656L1717.22+151L1712.28+154.031L1709.41+156.438L1705.53+159.031L1698.22+163.406L1696.59+164.281L1692.34+163L1686.94+160.969L1675.16+155.562L1658+144L1655.41+141.938L1630.38+140L1624.47+141.062L1616.84+141.844L1578.62+145.562L1550.25+143L1533.03+148.906L1511.25+145.5L1495.22+143.625L1483+143L1458.03+149.688L1449.22+154.25L1443.09+155.219L1435.03+155.438L1421.69+152.844L1409.91+149.219L1396.81+144.125L1390.41+139.812L1385.56+135.438L1385.19+130.875L1385.41+114L1386.44+98.8438L1387.62+93.8125L1390.16+89.625L1394.09+79.875L1395.28+76.5625L1395.44+75.3125L1378.12+63.9062L1371.88+63.3125L1364.25+67.5L1351.44+70.9688L1346.12+72.3438L1320.16+61.625L1320.41+61.9062L1302.72+52.9062L1298.69+49.2812L1287.53+38.5L1285.75+34.5938L1283.5+28.4375L1283.44+24.8438L1281.59+21.4688L1248.5+11.0312L1233.06+7.625L1226.47+6.1875L1192.12+2.5L1186.34+3.28125L1177.59+4.625L1164.41+10.875L1161.97+12.2812L1112.41+49.9688L1111.5+52.6875L1105.19+58.25L1101.97+60.25L1099.62+62.6875L1099.28+65L1103.62+79.2188L1101.25+103.094L1102.47+126.781L1103.09+136.375L1111.66+146.344L1111.69+146.375L1113.72+148.594L1116.5+151.094L1121.84+157.562L1134.09+188.625L1130.97+205.531L1129.28+210.812L1128.72+214.219L1129.03+217.469L1132.44+235.062L1134.88+235.594L1135.03+235.625L1136+239.375L1137.41+245.438L1138.75+253.062L1139.56+258.812L1139.41+260.469L1135.19+265.406L1126.75+270.656" opacity="1"/></g></svg>